<svg xmlns="http://www.w3.org/2000/svg" xmlns:xlink="http://www.w3.org/1999/xlink" id="body_1" preserveAspectRatio="xMinYMin meet" viewBox="0 0 793 1123"><defs><clipPath id="1"><path id="" clip-rule="evenodd" transform="matrix(1 0 0 1 0 0)" d="M0 842L0 0L0 0L595.5 0L595.5 0L595.5 842L595.5 842L0 842z" /></clipPath><clipPath id="2"><path id="" clip-rule="evenodd" transform="matrix(1 0 0 1 0 0)" d="M0 0L595.5 0L595.5 0L595.5 842L595.5 842L0 842z" /></clipPath><clipPath id="3"><path id="" clip-rule="evenodd" transform="matrix(1 0 0 1 0 0)" d="M0 0L595.5 0L595.5 0L595.5 842L595.5 842L0 842z" /></clipPath><clipPath id="4"><path id="" clip-rule="evenodd" transform="matrix(1 0 0 1 0 0)" d="M-0.8 52.59998L377.1 52.59998L377.1 52.59998L377.1 828.8L377.1 828.8L-0.8 828.8z" /></clipPath><clipPath id="5"><path id="" clip-rule="evenodd" transform="matrix(1 0 0 1 0 0)" d="M0 0L595.5 0L595.5 0L595.5 842L595.5 842L0 842z" /></clipPath><clipPath id="6"><path id="" clip-rule="evenodd" transform="matrix(1 0 0 1 0 0)" d="M367.5 158.05L594.7 158.05L594.7 158.05L594.7 205.05L594.7 205.05L367.5 205.05z" /></clipPath><clipPath id="7"><path id="" clip-rule="evenodd" transform="matrix(1 0 0 1 0 0)" d="M0 0L595.5 0L595.5 0L595.5 842L595.5 842L0 842z" /></clipPath><clipPath id="8"><path id="" clip-rule="evenodd" transform="matrix(1 0 0 1 0 0)" d="M391.9 223.2L577.1 223.2L577.1 223.2L577.1 253.45L577.1 253.45L391.9 253.45z" /></clipPath><clipPath id="9"><path id="" clip-rule="evenodd" transform="matrix(1 0 0 1 0 0)" d="M0 0L595.5 0L595.5 0L595.5 842L595.5 842L0 842z" /></clipPath><clipPath id="10"><path id="" clip-rule="evenodd" transform="matrix(1 0 0 1 0 0)" d="M391.2 633.75L558.6 633.75L558.6 633.75L558.6 655.8L558.6 655.8L391.2 655.8z" /></clipPath><clipPath id="11"><path id="" clip-rule="evenodd" transform="matrix(1 0 0 1 0 0)" d="M0 0L595.5 0L595.5 0L595.5 842L595.5 842L0 842z" /></clipPath><clipPath id="12"><path id="" clip-rule="evenodd" transform="matrix(1 0 0 1 0 0)" d="M390.05 505.2L557.45 505.2L557.45 505.2L557.45 536.2L557.45 536.2L390.05 536.2z" /></clipPath><clipPath id="13"><path id="" clip-rule="evenodd" transform="matrix(1 0 0 1 0 0)" d="M0 0L595.5 0L595.5 0L595.5 842L595.5 842L0 842z" /></clipPath><clipPath id="14"><path id="" clip-rule="evenodd" transform="matrix(1 0 0 1 0 0)" d="M0 0L595.5 0L595.5 0L595.5 842L595.5 842L0 842z" /></clipPath><clipPath id="15"><path id="" clip-rule="evenodd" transform="matrix(1 0 0 1 0 0)" d="M417 275.4L604.4 275.4L604.4 275.4L604.4 493.2L604.4 493.2L417 493.2z" /></clipPath><clipPath id="16"><path id="" clip-rule="evenodd" transform="matrix(1 0 0 1 0 0)" d="M0 0L595.5 0L595.5 0L595.5 842L595.5 842L0 842z" /></clipPath><clipPath id="17"><path id="" clip-rule="evenodd" transform="matrix(1 0 0 1 0 0)" d="M417.4 562.75L597.3 562.75L597.3 562.75L597.3 614.15L597.3 614.15L417.4 614.15z" /></clipPath><clipPath id="18"><path id="" clip-rule="evenodd" transform="matrix(1 0 0 1 0 0)" d="M0 0L595.5 0L595.5 0L595.5 842L595.5 842L0 842z" /></clipPath><clipPath id="19"><path id="" clip-rule="evenodd" transform="matrix(1 0 0 1 0 0)" d="M418.4 684.7L666.3 684.7L666.3 684.7L666.3 805.6L666.3 805.6L418.4 805.6z" /></clipPath></defs><g transform="matrix(1.333333 0 0 1.333333 0 0)"><g clip-path="url(#1)"><g clip-path="url(#2)"><path id="1" transform="matrix(1 0 0 -1 0 842)" d="M370.08 842L375 842L375 842L375 0.08001709L375 0.08001709L370.08 0.08001709z" stroke="none" fill="#88677E" fill-rule="evenodd" /><path id="2" transform="matrix(1 0 0 -1 0 842)" d="M413.599 746.259L413.599 746.341L413.699 742.641L413.695 742.721L413.995 739.021L413.986 739.106L414.486 735.506L414.472 735.59L415.172 732.04L415.158 732.104L416.008 728.604L415.983 728.693L417.033 725.293L417.005 725.374L418.255 722.024L418.232 722.083L419.582 718.883L419.55 718.954L421.1 715.754L421.051 715.847L422.801 712.797L422.771 712.847L424.621 709.897L424.578 709.962L426.578 707.112L426.532 707.174L428.682 704.424L428.633 704.483L430.933 701.833L430.882 701.889L433.332 699.339L433.267 699.403L435.817 697.053L435.783 697.083L438.433 694.783L438.35 694.85L441.15 692.75L441.102 692.785L444.002 690.785L443.937 690.827L446.937 688.977L446.871 689.015L449.971 687.315L449.887 687.358L453.087 685.858L453.036 685.881L456.336 684.481L456.256 684.512L459.606 683.312L459.537 683.335L462.987 682.285L462.899 682.309L466.449 681.459L466.367 681.476L469.967 680.826L469.904 680.836L473.554 680.336L473.471 680.345L477.171 680.045L477.089 680.049L480.889 679.949L480.81 679.949L484.56 680.049L484.479 680.045L488.179 680.345L488.099 680.337L491.799 680.837L491.73 680.825L495.28 681.475L495.201 681.459L498.751 682.309L498.663 682.285L502.113 683.335L502.044 683.312L505.394 684.512L505.314 684.481L508.614 685.881L508.563 685.858L511.763 687.358L511.679 687.315L514.779 689.015L514.713 688.977L517.713 690.827L517.648 690.785L520.548 692.785L520.5 692.75L523.3 694.85L523.217 694.783L525.867 697.083L525.833 697.053L528.383 699.403L528.318 699.339L530.768 701.889L530.717 701.833L533.017 704.483L532.968 704.424L535.118 707.174L535.072 707.112L537.072 709.962L537.029 709.897L538.879 712.847L538.849 712.797L540.599 715.847L540.55 715.754L542.1 718.954L542.068 718.883L543.418 722.083L543.395 722.024L544.645 725.374L544.617 725.293L545.667 728.693L545.642 728.604L546.492 732.104L546.478 732.04L547.178 735.59L547.164 735.506L547.664 739.106L547.655 739.021L547.955 742.721L547.951 742.641L548.051 746.341L548.051 746.259L547.951 749.959L547.955 749.879L547.655 753.579L547.664 753.494L547.164 757.094L547.178 757.01L546.478 760.56L546.492 760.496L545.642 763.996L545.667 763.907L544.617 767.307L544.645 767.226L543.395 770.576L543.418 770.517L542.068 773.717L542.1 773.646L540.55 776.846L540.599 776.754L538.849 779.804L538.879 779.753L537.029 782.703L537.072 782.638L535.072 785.488L535.118 785.426L532.968 788.176L533.017 788.117L530.717 790.767L530.768 790.711L528.318 793.261L528.383 793.197L525.833 795.547L525.867 795.517L523.217 797.817L523.3 797.75L520.5 799.85L520.548 799.815L517.648 801.815L517.713 801.773L514.713 803.623L514.779 803.585L511.679 805.285L511.763 805.242L508.563 806.742L508.614 806.719L505.314 808.119L505.394 808.088L502.044 809.288L502.113 809.265L498.663 810.315L498.751 810.291L495.201 811.141L495.28 811.125L491.73 811.775L491.799 811.764L488.099 812.264L488.179 812.255L484.479 812.555L484.56 812.551L480.81 812.651L480.889 812.651L477.089 812.551L477.171 812.555L473.471 812.255L473.554 812.264L469.904 811.764L469.967 811.774L466.367 811.124L466.449 811.141L462.899 810.291L462.987 810.315L459.537 809.265L459.606 809.288L456.256 808.088L456.336 808.119L453.036 806.719L453.087 806.742L449.887 805.242L449.971 805.285L446.871 803.585L446.937 803.623L443.937 801.773L444.002 801.815L441.102 799.815L441.15 799.85L438.35 797.75L438.433 797.817L435.783 795.517L435.817 795.547L433.267 793.197L433.332 793.261L430.882 790.711L430.933 790.767L428.633 788.117L428.682 788.176L426.532 785.426L426.578 785.488L424.578 782.638L424.621 782.703L422.771 779.753L422.801 779.804L421.051 776.754L421.1 776.846L419.55 773.646L419.582 773.717L418.232 770.517L418.255 770.576L417.005 767.226L417.033 767.307L415.983 763.907L416.008 763.996L415.158 760.496L415.172 760.56L414.472 757.01L414.486 757.094L413.986 753.494L413.995 753.579L413.695 749.879L413.699 749.959L413.599 746.259M410.701 750.041L410.705 750.121L411.005 753.821L411.014 753.906L411.514 757.506L411.528 757.59L412.228 761.14L412.242 761.204L413.092 764.704L413.117 764.793L414.167 768.193L414.195 768.274L415.445 771.624L415.468 771.683L416.818 774.883L416.85 774.954L418.4 778.154L418.449 778.247L420.199 781.297L420.229 781.347L422.079 784.297L422.122 784.362L424.122 787.212L424.168 787.274L426.318 790.024L426.367 790.083L428.667 792.733L428.718 792.789L431.168 795.339L431.233 795.403L433.783 797.753L433.817 797.783L436.467 800.083L436.55 800.15L439.35 802.25L439.398 802.285L442.298 804.285L442.363 804.327L445.363 806.177L445.429 806.215L448.529 807.915L448.613 807.958L451.813 809.458L451.864 809.481L455.164 810.881L455.244 810.912L458.594 812.112L458.663 812.135L462.113 813.185L462.201 813.209L465.751 814.059L465.833 814.076L469.433 814.726L469.496 814.736L473.146 815.236L473.229 815.245L476.929 815.545L477.011 815.549L480.811 815.649L480.89 815.649L484.64 815.549L484.721 815.545L488.421 815.245L488.501 815.236L492.201 814.736L492.27 814.725L495.82 814.075L495.899 814.059L499.449 813.209L499.537 813.185L502.987 812.135L503.056 812.112L506.406 810.912L506.486 810.881L509.786 809.481L509.837 809.458L513.037 807.958L513.121 807.915L516.221 806.215L516.287 806.177L519.287 804.327L519.352 804.285L522.252 802.285L522.3 802.25L525.1 800.15L525.183 800.083L527.833 797.783L527.867 797.753L530.417 795.403L530.482 795.339L532.932 792.789L532.983 792.733L535.283 790.083L535.332 790.024L537.482 787.274L537.528 787.212L539.528 784.362L539.571 784.297L541.421 781.347L541.451 781.297L543.201 778.247L543.25 778.154L544.8 774.954L544.832 774.883L546.182 771.683L546.205 771.624L547.455 768.274L547.483 768.193L548.533 764.793L548.558 764.704L549.408 761.204L549.422 761.14L550.122 757.59L550.136 757.506L550.636 753.906L550.645 753.821L550.945 750.121L550.949 750.041L551.049 746.341L551.049 746.259L550.949 742.559L550.945 742.479L550.645 738.779L550.636 738.694L550.136 735.094L550.122 735.01L549.422 731.46L549.408 731.396L548.558 727.896L548.533 727.807L547.483 724.407L547.455 724.326L546.205 720.976L546.182 720.917L544.832 717.717L544.8 717.646L543.25 714.446L543.201 714.354L541.451 711.303L541.421 711.253L539.571 708.303L539.528 708.238L537.528 705.388L537.482 705.326L535.332 702.576L535.283 702.517L532.983 699.867L532.932 699.811L530.482 697.261L530.417 697.197L527.867 694.847L527.833 694.817L525.183 692.517L525.1 692.45L522.3 690.35L522.252 690.315L519.352 688.315L519.287 688.273L516.287 686.423L516.221 686.385L513.121 684.685L513.037 684.642L509.837 683.142L509.786 683.119L506.486 681.719L506.406 681.688L503.056 680.488L502.987 680.465L499.537 679.415L499.449 679.391L495.899 678.541L495.82 678.525L492.27 677.875L492.201 677.864L488.501 677.364L488.421 677.355L484.721 677.055L484.64 677.051L480.89 676.951L480.811 676.951L477.011 677.051L476.929 677.055L473.229 677.355L473.146 677.364L469.496 677.864L469.433 677.874L465.833 678.524L465.751 678.541L462.201 679.391L462.113 679.415L458.663 680.465L458.594 680.488L455.244 681.688L455.164 681.719L451.864 683.119L451.813 683.142L448.613 684.642L448.529 684.685L445.429 686.385L445.363 686.423L442.363 688.273L442.298 688.315L439.398 690.315L439.35 690.35L436.55 692.45L436.467 692.517L433.817 694.817L433.783 694.847L431.233 697.197L431.168 697.261L428.718 699.811L428.667 699.867L426.367 702.517L426.318 702.576L424.168 705.326L424.122 705.388L422.122 708.238L422.079 708.303L420.229 711.253L420.199 711.303L418.449 714.354L418.4 714.446L416.85 717.646L416.818 717.717L415.468 720.917L415.445 720.976L414.195 724.326L414.167 724.407L413.117 727.807L413.092 727.896L412.242 731.396L412.228 731.46L411.528 735.01L411.514 735.094L411.014 738.694L411.005 738.779L410.705 742.479L410.701 742.559L410.601 746.259L410.601 746.341L410.701 750.041z" stroke="none" fill="#FFFFFF" fill-rule="nonzero" /><path id="3" transform="matrix(1 0 0 -1 0 842)" d="M375 846.56L595.32 846.56L595.32 846.56L595.32 -2.200012L595.32 -2.200012L375 -2.200012z" stroke="none" fill="#252525" fill-rule="evenodd" /><path id="4" transform="matrix(1 0 0 -1 0 842)" d="M-0.24 842L372.12 842L372.12 842L372.12 0.2000122L372.12 0.2000122L-0.24 0.2000122z" stroke="none" fill="#F0EFEF" fill-rule="evenodd" /><g transform="matrix(0.3754098 0 0 0.3749171 412.08 27.83997)"><g transform="matrix(1 0 0 1 0 0)"><image x="0" y="0" xlink:href="img_01.png" width="366" height="362" /></g></g><g transform="matrix(0.3604598 0 0 0.3605042 433.8 41.28003)"><g transform="matrix(1 0 0 1 0 0)"><image x="0" y="0" xlink:href="img_02.png" width="261" height="238" /></g></g><path id="7" transform="matrix(1 0 0 -1 0 842)" d="M117.4 801.025L349.85 801.025L349.85 800.275L117.4 800.275z" stroke="none" fill="#404040" fill-rule="nonzero" /><g transform="matrix(0.3601351 0 0 0.3607861 33.96 53.40002)"><g transform="matrix(1 0 0 1 0 0)"><image x="0" y="0" xlink:href="img_03.png" width="888" height="458" /></g></g><g transform="matrix(0.3249231 0 0 0.3237209 41.16 120.36)"><g transform="matrix(1 0 0 1 0 0)"><image x="0" y="0" xlink:href="img_04.png" width="65" height="43" /></g></g><path id="10" transform="matrix(1 0 0 -1 0 842)" d="M567.45 610.95L402.85 610.95L402.85 610.95L399.2 610.35L399.2 610.35L396.05 608.75L396.05 608.75L393.55 606.25L393.55 606.25L391.95 603.1L391.95 603.1L391.35 599.5L391.35 599.5L391.95 595.85L391.95 595.85L393.55 592.7L393.55 592.7L396.05 590.2L396.05 590.2L399.2 588.6L399.2 588.6L402.85 588L402.85 588L567.4 588L567.4 588L571.05 588.6L571.05 588.6L574.2 590.2L574.2 590.2L576.7 592.7L576.7 592.7L578.3 595.85L578.3 595.85L578.9 599.5L578.9 599.5L578.3 603.1L578.3 603.1L576.7 606.25L576.7 606.25L574.2 608.75L574.2 608.75L571.05 610.35L571.05 610.35L567.45 610.95" stroke="none" fill="#FFFFFF" fill-rule="evenodd" /><path id="11" transform="matrix(1 0 0 -1 0 842)" d="M391.646 599.451L391.646 599.549L392.246 595.899L392.217 595.986L393.817 592.836L393.762 592.912L396.262 590.412L396.186 590.467L399.336 588.867L399.249 588.896L402.899 588.296L402.85 588.3L567.4 588.3L567.351 588.296L571.001 588.896L570.914 588.867L574.064 590.467L573.988 590.412L576.488 592.912L576.433 592.836L578.033 595.986L578.004 595.899L578.604 599.549L578.604 599.451L578.004 603.051L578.033 602.964L576.433 606.114L576.488 606.038L573.988 608.538L574.064 608.483L570.914 610.083L571.001 610.054L567.401 610.654L567.45 610.65L402.85 610.65L402.899 610.654L399.249 610.054L399.336 610.083L396.186 608.483L396.262 608.538L393.762 606.038L393.817 606.114L392.217 602.964L392.246 603.051L391.646 599.451M391.654 603.149L391.683 603.236L393.283 606.386L393.338 606.462L395.838 608.962L395.914 609.017L399.064 610.617L399.151 610.646L402.801 611.246L402.85 611.25L567.45 611.25L567.499 611.246L571.099 610.646L571.186 610.617L574.336 609.017L574.412 608.962L576.912 606.462L576.967 606.386L578.567 603.236L578.596 603.149L579.196 599.549L579.196 599.451L578.596 595.801L578.567 595.714L576.967 592.564L576.912 592.488L574.412 589.988L574.336 589.933L571.186 588.333L571.099 588.304L567.449 587.704L567.4 587.7L402.85 587.7L402.801 587.704L399.151 588.304L399.064 588.333L395.914 589.933L395.838 589.988L393.338 592.488L393.283 592.564L391.683 595.714L391.654 595.801L391.054 599.451L391.054 599.549L391.654 603.149z" stroke="none" fill="#FFFFFF" fill-rule="nonzero" /><g transform="matrix(0.24 0 0 0.36 71.76 -0.1199341)"><g transform="matrix(1 0 0 1 0 0)"><image x="0" y="0" xlink:href="img_05.png" width="1" height="1" /></g></g><g transform="matrix(0.24 0 0 0.36 71.76 -0.1199341)"><g transform="matrix(1 0 0 1 0 0)"><image x="0" y="0" xlink:href="img_05.png" width="1" height="1" /></g></g><path id="14" transform="matrix(1 0 0 -1 0 842)" d="M567.45 329.05L402.85 329.05L402.85 329.05L399.2 328.45L399.2 328.45L396.05 326.85L396.05 326.85L393.55 324.35L393.55 324.35L391.95 321.2L391.95 321.2L391.35 317.6L391.35 317.6L391.95 313.95L391.95 313.95L393.55 310.8L393.55 310.8L396.05 308.3L396.05 308.3L399.2 306.7L399.2 306.7L402.85 306.1L402.85 306.1L567.4 306.1L567.4 306.1L571.05 306.7L571.05 306.7L574.2 308.3L574.2 308.3L576.7 310.8L576.7 310.8L578.3 313.95L578.3 313.95L578.9 317.6L578.9 317.6L578.3 321.2L578.3 321.2L576.7 324.35L576.7 324.35L574.2 326.85L574.2 326.85L571.05 328.45L571.05 328.45L567.45 329.05" stroke="none" fill="#FFFFFF" fill-rule="evenodd" /><path id="15" transform="matrix(1 0 0 -1 0 842)" d="M391.646 317.551L391.646 317.649L392.246 313.999L392.217 314.086L393.817 310.936L393.762 311.012L396.262 308.512L396.186 308.567L399.336 306.967L399.249 306.996L402.899 306.396L402.85 306.4L567.4 306.4L567.351 306.396L571.001 306.996L570.914 306.967L574.064 308.567L573.988 308.512L576.488 311.012L576.433 310.936L578.033 314.086L578.004 313.999L578.604 317.649L578.604 317.551L578.004 321.151L578.033 321.064L576.433 324.214L576.488 324.138L573.988 326.638L574.064 326.583L570.914 328.182L571.001 328.154L567.401 328.754L567.45 328.75L402.85 328.75L402.899 328.754L399.249 328.154L399.336 328.182L396.186 326.583L396.262 326.638L393.762 324.138L393.817 324.214L392.217 321.064L392.246 321.151L391.646 317.551M391.654 321.249L391.683 321.336L393.283 324.486L393.338 324.562L395.838 327.062L395.914 327.117L399.064 328.717L399.151 328.746L402.801 329.346L402.85 329.35L567.45 329.35L567.499 329.346L571.099 328.746L571.186 328.717L574.336 327.117L574.412 327.062L576.912 324.562L576.967 324.486L578.567 321.336L578.596 321.249L579.196 317.649L579.196 317.551L578.596 313.901L578.567 313.814L576.967 310.664L576.912 310.588L574.412 308.088L574.336 308.033L571.186 306.432L571.099 306.404L567.449 305.804L567.4 305.8L402.85 305.8L402.801 305.804L399.151 306.404L399.064 306.432L395.914 308.033L395.838 308.088L393.338 310.588L393.283 310.664L391.683 313.814L391.654 313.901L391.054 317.551L391.054 317.649L391.654 321.249z" stroke="none" fill="#FFFFFF" fill-rule="nonzero" /><g transform="matrix(0.24 0 0 0.36 71.76 -0.1199341)"><g transform="matrix(1 0 0 1 0 0)"><image x="0" y="0" xlink:href="img_05.png" width="1" height="1" /></g></g><g transform="matrix(0.24 0 0 0.36 71.76 -0.1199341)"><g transform="matrix(1 0 0 1 0 0)"><image x="0" y="0" xlink:href="img_05.png" width="1" height="1" /></g></g><g transform="matrix(0.24 0 0 0.36 71.76 -0.1199341)"><g transform="matrix(1 0 0 1 0 0)"><image x="0" y="0" xlink:href="img_05.png" width="1" height="1" /></g></g><g transform="matrix(0.3607454 0 0 0.36 408.84 565.3199)"><g transform="matrix(1 0 0 1 0 0)"><image x="0" y="0" xlink:href="img_06.png" width="483" height="65" /></g></g><g transform="matrix(0.3605479 0 0 0.36375 408.84 751.6801)"><g transform="matrix(1 0 0 1 0 0)"><image x="0" y="0" xlink:href="img_07.png" width="438" height="64" /></g></g><path id="21" transform="matrix(1 0 0 -1 0 842)" d="M567.45 207.55L402.85 207.55L402.85 207.55L399.2 206.95L399.2 206.95L396.05 205.35L396.05 205.35L393.55 202.85L393.55 202.85L391.95 199.7L391.95 199.7L391.35 196.1L391.35 196.1L391.95 192.45L391.95 192.45L393.55 189.3L393.55 189.3L396.05 186.8L396.05 186.8L399.2 185.2L399.2 185.2L402.85 184.6L402.85 184.6L567.4 184.6L567.4 184.6L571.05 185.2L571.05 185.2L574.2 186.8L574.2 186.8L576.7 189.3L576.7 189.3L578.3 192.45L578.3 192.45L578.9 196.1L578.9 196.1L578.3 199.7L578.3 199.7L576.7 202.85L576.7 202.85L574.2 205.35L574.2 205.35L571.05 206.95L571.05 206.95L567.45 207.55" stroke="none" fill="#FFFFFF" fill-rule="evenodd" /><path id="22" transform="matrix(1 0 0 -1 0 842)" d="M391.646 196.051L391.646 196.149L392.246 192.499L392.217 192.586L393.817 189.436L393.762 189.512L396.262 187.012L396.186 187.067L399.336 185.467L399.249 185.496L402.899 184.896L402.85 184.9L567.4 184.9L567.351 184.896L571.001 185.496L570.914 185.467L574.064 187.067L573.988 187.012L576.488 189.512L576.433 189.436L578.033 192.586L578.004 192.499L578.604 196.149L578.604 196.051L578.004 199.651L578.033 199.564L576.433 202.714L576.488 202.638L573.988 205.138L574.064 205.083L570.914 206.682L571.001 206.654L567.401 207.254L567.45 207.25L402.85 207.25L402.899 207.254L399.249 206.654L399.336 206.682L396.186 205.083L396.262 205.138L393.762 202.638L393.817 202.714L392.217 199.564L392.246 199.651L391.646 196.051M391.654 199.749L391.683 199.836L393.283 202.986L393.338 203.062L395.838 205.562L395.914 205.617L399.064 207.217L399.151 207.246L402.801 207.846L402.85 207.85L567.45 207.85L567.499 207.846L571.099 207.246L571.186 207.217L574.336 205.617L574.412 205.562L576.912 203.062L576.967 202.986L578.567 199.836L578.596 199.749L579.196 196.149L579.196 196.051L578.596 192.401L578.567 192.314L576.967 189.164L576.912 189.088L574.412 186.588L574.336 186.533L571.186 184.932L571.099 184.904L567.449 184.304L567.4 184.3L402.85 184.3L402.801 184.304L399.151 184.904L399.064 184.932L395.914 186.533L395.838 186.588L393.338 189.088L393.283 189.164L391.683 192.314L391.654 192.401L391.054 196.051L391.054 196.149L391.654 199.749z" stroke="none" fill="#FFFFFF" fill-rule="nonzero" /><g transform="matrix(0.3603133 0 0 0.3636364 410.16 637.2)"><g transform="matrix(1 0 0 1 0 0)"><image x="0" y="0" xlink:href="img_08.png" width="383" height="66" /></g></g><path id="24" transform="matrix(1 0 0 -1 0 842)" d="M118.25 608.075L350.7 608.075L350.7 607.325L118.25 607.325z" stroke="none" fill="#404040" fill-rule="nonzero" /><g transform="matrix(0.3607059 0 0 0.3636364 30.6 236.88)"><g transform="matrix(1 0 0 1 0 0)"><image x="0" y="0" xlink:href="img_09.png" width="340" height="66" /></g></g><path id="26" transform="matrix(1 0 0 -1 0 842)" d="M118.25 153.775L350.7 153.775L350.7 153.025L118.25 153.025z" stroke="none" fill="#404040" fill-rule="nonzero" /></g><g clip-path="url(#3)"><g clip-path="url(#4)"></g></g><g clip-path="url(#5)"><g clip-path="url(#6)"></g></g><g clip-path="url(#7)"><g clip-path="url(#8)"></g></g><g clip-path="url(#9)"><g clip-path="url(#10)"></g></g><g clip-path="url(#11)"><g clip-path="url(#12)"></g></g><g clip-path="url(#13)"><g transform="matrix(0.3733333 0 0 0.3781818 395.76 312.2401)"><g transform="matrix(1 0 0 1 0 0)"><image x="0" y="0" xlink:href="img_10.png" width="45" height="33" /></g></g><g transform="matrix(0.3753846 0 0 0.375 396.72 279.36)"><g transform="matrix(1 0 0 1 0 0)"><image x="0" y="0" xlink:href="img_11.png" width="39" height="40" /></g></g><g transform="matrix(0.3767442 0 0 0.3736364 394.8 337.2)"><g transform="matrix(1 0 0 1 0 0)"><image x="0" y="0" xlink:href="img_12.png" width="43" height="44" /></g></g><g transform="matrix(0.3711628 0 0 0.3771429 395.76 366.72)"><g transform="matrix(1 0 0 1 0 0)"><image x="0" y="0" xlink:href="img_13.png" width="43" height="56" /></g></g><g transform="matrix(0.3711628 0 0 0.38 395.76 405.96)"><g transform="matrix(1 0 0 1 0 0)"><image x="0" y="0" xlink:href="img_14.png" width="43" height="42" /></g></g><g transform="matrix(0.3746939 0 0 0.3724138 394.8 565.8)"><g transform="matrix(1 0 0 1 0 0)"><image x="0" y="0" xlink:href="img_15.png" width="49" height="29" /></g></g><g transform="matrix(0.3784615 0 0 0.37125 396.6 598.92)"><g transform="matrix(1 0 0 1 0 0)"><image x="0" y="0" xlink:href="img_16.png" width="39" height="32" /></g></g><path id="610" transform="matrix(1 0 0 -1 0 842)" d="M405.35 162.1L404 162.1L404 162.1L404 154.45L404 154.45L405.35 154.45L405.35 154.45L405.35 162.1M405.35 153.35L404 153.35L404 153.35L404 152.7L404 152.7L405.35 152.7L405.35 152.7L405.35 153.35zM401 153.35L400.35 153.35L400.35 153.35L400.35 152.7L400.35 152.7L401 152.7L401 152.7L400.95 152.7L400.95 152.7L400.9 152.8L400.9 152.8L400.85 152.8L400.85 152.8L400.85 152.85L400.85 152.85L400.8 152.95L400.8 152.95L400.85 153.15L400.85 153.15L400.85 153.2L400.85 153.2L400.9 153.25L400.9 153.25L400.95 153.3L400.95 153.3L400.95 153.35L400.95 153.35L401 153.35zM405.35 153.45L401.3 153.45L401.3 153.45L401.35 153.4L401.35 153.4L401.45 153.4L401.45 153.4L401.5 153.35L401.5 153.35L401.55 153.3L401.55 153.3L401.6 153.3L401.6 153.3L401.6 153.25L401.6 153.25L401.6 153.2L401.6 153.2L401.65 153.2L401.65 153.2L401.65 153.15L401.65 153.15L401.65 152.95L401.65 152.95L401.65 152.9L401.65 152.9L401.65 152.85L401.65 152.85L401.6 152.8L401.6 152.8L401.6 152.75L401.6 152.75L401.55 152.7L401.55 152.7L401.5 152.7L401.5 152.7L401.45 152.65L401.45 152.65L401.35 152.6L401.35 152.6L405.35 152.6L405.35 152.6L405.35 152.7L405.35 152.7L402.15 152.7L402.15 152.7L402.15 153.35L402.15 153.35L405.35 153.35L405.35 153.35L405.35 153.45zM405.35 152L404 152L404 152L404 151.35L404 151.35L405.35 151.35L405.35 151.35L405.35 152zM402.55 152L402 152L402 152L402 151.35L402 151.35L402.55 151.35L402.55 151.35L402.55 152zM400.5 152L399.95 152L399.95 152L399.95 151.35L399.95 151.35L400.5 151.35L400.5 151.35L400.5 152zM405.35 150.8L404 150.8L404 150.8L404 150.15L404 150.15L405.35 150.15L405.35 150.15L405.35 150.8zM402.55 150.8L402 150.8L402 150.8L402 150.15L402 150.15L402.55 150.15L402.55 150.15L402.55 150.8zM400.5 150.8L399.95 150.8L399.95 150.8L399.95 150.15L399.95 150.15L400.5 150.15L400.5 150.15L400.5 150.8zM405.35 149.6L404 149.6L404 149.6L404 148.9L404 148.9L405.35 148.9L405.35 148.9L405.35 149.6zM402.55 149.6L402 149.6L402 149.6L402 148.9L402 148.9L402.55 148.9L402.55 148.9L402.55 149.6zM400.5 149.6L399.95 149.6L399.95 149.6L399.95 148.9L399.95 148.9L400.5 148.9L400.5 148.9L400.5 149.6zM413.7 148.25L410.9 148.25L410.9 148.25L410.9 147.2L410.9 147.2L414.15 147.2L414.15 147.2L413.7 148.25zM404.4 163.45L398 163.45L398 163.45L397.8 163.4L397.8 163.4L397.75 163.4L397.75 163.4L397.65 163.35L397.65 163.35L397.6 163.35L397.6 163.35L397.55 163.3L397.55 163.3L397.5 163.3L397.5 163.3L397.45 163.2L397.45 163.2L397.35 163.15L397.35 163.15L397.35 163.1L397.35 163.1L397.3 163.1L397.3 163.1L397.2 162.95L397.2 162.95L397.2 162.9L397.2 162.9L397.15 162.85L397.15 162.85L397.15 162.8L397.15 162.8L397.1 162.7L397.1 162.7L397.05 162.6L397.05 162.6L397.05 147.85L397.05 147.85L397.1 147.75L397.1 147.75L397.15 147.65L397.15 147.65L397.15 147.6L397.15 147.6L397.2 147.55L397.2 147.55L397.2 147.5L397.2 147.5L397.35 147.35L397.35 147.35L397.4 147.25L397.4 147.25L397.45 147.25L397.45 147.25L397.45 147.2L397.45 147.2L397.5 147.15L397.5 147.15L397.55 147.15L397.55 147.15L397.65 147.1L397.65 147.1L397.7 147.05L397.7 147.05L397.75 147.05L397.75 147.05L397.8 147.05L397.8 147.05L398 147L398 147L404.4 147L404.4 147L404.6 147.05L404.6 147.05L404.65 147.05L404.65 147.05L404.7 147.05L404.7 147.05L404.75 147.1L404.75 147.1L404.8 147.1L404.8 147.1L404.85 147.15L404.85 147.15L405 147.25L405 147.25L405.05 147.3L405.05 147.3L405.1 147.35L405.1 147.35L405.15 147.45L405.15 147.45L405.2 147.5L405.2 147.5L405.2 147.55L405.2 147.55L405.25 147.65L405.25 147.65L405.3 147.65L405.3 147.65L405.3 147.7L405.3 147.7L405.3 147.75L405.3 147.75L405.35 147.85L405.35 147.85L405.35 148.9L405.35 148.9L398.45 148.9L398.45 148.9L398.45 149.6L398.45 149.6L405.35 149.6L405.35 149.6L405.35 150.15L405.35 150.15L398.45 150.15L398.45 150.15L398.45 150.8L398.45 150.8L405.35 150.8L405.35 150.8L405.35 151.35L405.35 151.35L398.45 151.35L398.45 151.35L398.45 152L398.45 152L405.35 152L405.35 152L405.35 152.6L405.35 152.6L401.15 152.6L401.15 152.6L401.1 152.6L401.1 152.6L401.05 152.65L401.05 152.65L401 152.7L401 152.7L398.45 152.7L398.45 152.7L398.45 153.35L398.45 153.35L401 153.35L401 153.35L401.05 153.4L401.05 153.4L401.1 153.4L401.1 153.4L401.15 153.4L401.15 153.4L401.2 153.45L401.2 153.45L405.35 153.45L405.35 153.45L405.35 154.45L405.35 154.45L398.45 154.45L398.45 154.45L398.45 162.1L398.45 162.1L405.35 162.1L405.35 162.1L405.35 162.6L405.35 162.6L405.3 162.7L405.3 162.7L405.3 162.75L405.3 162.75L405.3 162.8L405.3 162.8L405.25 162.85L405.25 162.85L405.2 162.9L405.2 162.9L405.2 162.95L405.2 162.95L405.15 163L405.15 163L405.1 163.1L405.1 163.1L405.05 163.1L405.05 163.1L405 163.2L405 163.2L404.9 163.3L404.9 163.3L404.85 163.3L404.85 163.3L404.8 163.35L404.8 163.35L404.7 163.35L404.7 163.35L404.6 163.4L404.6 163.4L404.4 163.45zM413.1 149.75L406.5 149.75L406.5 149.75L406.5 147.9L406.5 147.9L406.5 147.75L406.5 147.75L406.45 147.5L406.45 147.5L406.45 147.45L406.45 147.45L406.4 147.35L406.4 147.35L406.35 147.15L406.35 147.15L406.3 147.05L406.3 147.05L406.25 146.95L406.25 146.95L406.2 146.9L406.2 146.9L406.1 146.7L406.1 146.7L405.85 146.45L405.85 146.45L405.8 146.4L405.8 146.4L405.7 146.3L405.7 146.3L405.65 146.25L405.65 146.25L405.55 146.2L405.55 146.2L405.45 146.15L405.45 146.15L405.35 146.1L405.35 146.1L405.25 146.05L405.25 146.05L405.15 146L405.15 146L405.05 145.95L405.05 145.95L404.95 145.9L404.95 145.9L404.85 145.9L404.85 145.9L404.75 145.85L404.75 145.85L404.55 145.8L404.55 145.8L404.45 145.8L404.45 145.8L404.3 145.8L404.3 145.8L414.3 145.8L414.3 145.8L414.3 146.85L414.3 146.85L414.15 147.2L414.15 147.2L408.65 147.2L408.65 147.2L408.65 148.25L408.65 148.25L413.7 148.25L413.7 148.25L413.1 149.75zM395.9 149.75L394.65 149.75L394.65 149.75L393.75 146.9L393.75 146.9L393.75 144.6L393.75 144.6L414.3 144.6L414.3 144.6L414.3 145.8L414.3 145.8L398.1 145.8L398.1 145.8L397.95 145.8L397.95 145.8L397.85 145.8L397.85 145.8L397.55 145.9L397.55 145.9L397.45 145.9L397.45 145.9L397.35 145.95L397.35 145.95L397.25 146L397.25 146L397.15 146.05L397.15 146.05L396.95 146.15L396.95 146.15L396.75 146.25L396.75 146.25L396.55 146.45L396.55 146.45L396.3 146.7L396.3 146.7L396.2 146.9L396.2 146.9L396.15 146.95L396.15 146.95L396.1 147.05L396.1 147.05L396 147.25L396 147.25L396 147.35L396 147.35L395.95 147.45L395.95 147.45L395.95 147.5L395.95 147.5L395.9 147.75L395.9 147.75L395.9 147.9L395.9 147.9L395.9 149.75z" stroke="none" fill="#FFFFFF" fill-rule="evenodd" /><g transform="matrix(0.3767442 0 0 0.38 395.88 782.88)"><g transform="matrix(1 0 0 1 0 0)"><image x="0" y="0" xlink:href="img_17.png" width="43" height="42" /></g></g><g transform="matrix(0.3766667 0 0 0.3742857 397.2 747.48)"><g transform="matrix(1 0 0 1 0 0)"><image x="0" y="0" xlink:href="img_18.png" width="36" height="42" /></g></g><g transform="matrix(0.375 0 0 0.3682759 396.6 717.12)"><g transform="matrix(1 0 0 1 0 0)"><image x="0" y="0" xlink:href="img_19.png" width="40" height="29" /></g></g><g transform="matrix(0.5025 0 0 0.5025 395.4 439.44)"><g transform="matrix(1 0 0 1 0 0)"><image x="0" y="0" xlink:href="img_20.png" width="32" height="32" /></g></g></g><g clip-path="url(#14)"><g clip-path="url(#15)"></g></g><g clip-path="url(#16)"><g clip-path="url(#17)"></g></g><g clip-path="url(#18)"><g clip-path="url(#19)"></g></g></g></g></svg>