<svg xmlns="http://www.w3.org/2000/svg" xmlns:xlink="http://www.w3.org/1999/xlink" id="body_2" preserveAspectRatio="xMinYMin meet" viewBox="0 0 793 1123"><defs><clipPath id="1"><path id="" clip-rule="evenodd" transform="matrix(1 0 0 1 0 0)" d="M0 842L0 0L0 0L595.5 0L595.5 0L595.5 842L595.5 842L0 842z" /></clipPath><clipPath id="2"><path id="" clip-rule="evenodd" transform="matrix(1 0 0 1 0 0)" d="M0 0L595.5 0L595.5 0L595.5 842L595.5 842L0 842z" /></clipPath><clipPath id="3"><path id="" clip-rule="evenodd" transform="matrix(1 0 0 1 0 0)" d="M0 0L595.5 0L595.5 0L595.5 842L595.5 842L0 842z" /></clipPath><clipPath id="4"><path id="" clip-rule="evenodd" transform="matrix(1 0 0 1 0 0)" d="M38.15 652.5L358.4 652.5L358.4 652.5L358.4 676.85L358.4 676.85L38.15 676.85z" /></clipPath><clipPath id="5"><path id="" clip-rule="evenodd" transform="matrix(1 0 0 1 0 0)" d="M0 0L595.5 0L595.5 0L595.5 842L595.5 842L0 842z" /></clipPath><clipPath id="6"><path id="" clip-rule="evenodd" transform="matrix(1 0 0 1 0 0)" d="M37.3 467.15L277.4 467.15L277.4 467.15L277.4 491.45L277.4 491.45L37.3 491.45z" /></clipPath><clipPath id="7"><path id="" clip-rule="evenodd" transform="matrix(1 0 0 1 0 0)" d="M0 0L595.5 0L595.5 0L595.5 842L595.5 842L0 842z" /></clipPath><clipPath id="8"><path id="" clip-rule="evenodd" transform="matrix(1 0 0 1 0 0)" d="M0 0L595.5 0L595.5 0L595.5 842L595.5 842L0 842z" /></clipPath><clipPath id="9"><path id="" clip-rule="evenodd" transform="matrix(1 0 0 1 0 0)" d="M37.55 22L358.6 22L358.6 22L358.6 46.25L358.6 46.25L37.55 46.25z" /></clipPath><clipPath id="10"><path id="" clip-rule="evenodd" transform="matrix(1 0 0 1 0 0)" d="M0 0L595.5 0L595.5 0L595.5 842L595.5 842L0 842z" /></clipPath><clipPath id="11"><path id="" clip-rule="evenodd" transform="matrix(1 0 0 1 0 0)" d="M0 0L595.5 0L595.5 0L595.5 842L595.5 842L0 842z" /></clipPath><clipPath id="12"><path id="" clip-rule="evenodd" transform="matrix(1 0 0 1 0 0)" d="M45.8 691.15L553.55 691.15L553.55 691.15L553.55 818.05L553.55 818.05L45.8 818.05z" /></clipPath><clipPath id="13"><path id="" clip-rule="evenodd" transform="matrix(1 0 0 1 0 0)" d="M0 0L595.5 0L595.5 0L595.5 842L595.5 842L0 842z" /></clipPath><clipPath id="14"><path id="" clip-rule="evenodd" transform="matrix(1 0 0 1 0 0)" d="M0 0L595.5 0L595.5 0L595.5 842L595.5 842L0 842z" /></clipPath><clipPath id="15"><path id="" clip-rule="evenodd" transform="matrix(1 0 0 1 0 0)" d="M45.65 502.85L206 502.85L206 502.85L206 629.7L206 629.7L45.65 629.7z" /></clipPath><clipPath id="16"><path id="" clip-rule="evenodd" transform="matrix(1 0 0 1 0 0)" d="M0 0L595.5 0L595.5 0L595.5 842L595.5 842L0 842z" /></clipPath><clipPath id="17"><path id="" clip-rule="evenodd" transform="matrix(1 0 0 1 0 0)" d="M0 0L595.5 0L595.5 0L595.5 842L595.5 842L0 842z" /></clipPath><clipPath id="18"><path id="" clip-rule="evenodd" transform="matrix(1 0 0 1 0 0)" d="M228.65 502.45L397.5 502.45L397.5 502.45L397.5 630.15L397.5 630.15L228.65 630.15z" /></clipPath><clipPath id="19"><path id="" clip-rule="evenodd" transform="matrix(1 0 0 1 0 0)" d="M0 0L595.5 0L595.5 0L595.5 842L595.5 842L0 842z" /></clipPath><clipPath id="20"><path id="" clip-rule="evenodd" transform="matrix(1 0 0 1 0 0)" d="M0 0L595.5 0L595.5 0L595.5 842L595.5 842L0 842z" /></clipPath><clipPath id="21"><path id="" clip-rule="evenodd" transform="matrix(1 0 0 1 0 0)" d="M412.6 501.65L581.6 501.65L581.6 501.65L581.6 630.05L581.6 630.05L412.6 630.05z" /></clipPath></defs><g transform="matrix(1.333333 0 0 1.333333 0 0)"><g clip-path="url(#1)"><g clip-path="url(#2)"><path id="1" transform="matrix(1 0 0 -1 0 842)" d="M0 845L598.2 845L598.2 845L598.2 -2.799988L598.2 -2.799988L0 -2.799988z" stroke="none" fill="#F0EFEF" fill-rule="evenodd" /><path id="2" transform="matrix(1 0 0 -1 0 842)" d="M126.65 363.075L359.1 363.075L359.1 362.325L126.65 362.325z" stroke="none" fill="#404040" fill-rule="nonzero" /><g transform="matrix(0.36 0 0 0.3636364 37.32 218.16)"><g transform="matrix(1 0 0 1 0 0)"><image x="0" y="0" xlink:href="img_22.png" width="341" height="66" /></g></g><path id="4" transform="matrix(1 0 0 -1 0 842)" d="M125.95 178.325L358.4 178.325L358.4 177.575L125.95 177.575z" stroke="none" fill="#404040" fill-rule="nonzero" /><g transform="matrix(0.3607059 0 0 0.3636364 38.16 652.56)"><g transform="matrix(1 0 0 1 0 0)"><image x="0" y="0" xlink:href="img_09.png" width="340" height="66" /></g></g></g><g clip-path="url(#3)"><g clip-path="url(#4)"></g></g><g clip-path="url(#5)"><g clip-path="url(#6)"></g></g><g clip-path="url(#7)"><path id="14" transform="matrix(1 0 0 -1 0 842)" d="M126.15 808.625L358.6 808.625L358.6 807.875L126.15 807.875z" stroke="none" fill="#404040" fill-rule="nonzero" /><g transform="matrix(0.3607059 0 0 0.3636364 37.56 21.96002)"><g transform="matrix(1 0 0 1 0 0)"><image x="0" y="0" xlink:href="img_09.png" width="340" height="66" /></g></g></g><g clip-path="url(#8)"><g clip-path="url(#9)"></g></g><g clip-path="url(#10)"><path id="174" transform="matrix(1 0 0 -1 0 842)" d="M104.6 710.6L230.25 710.6" stroke="#0000FF" stroke-width="0.48" fill="none" /><path id="254" transform="matrix(1 0 0 -1 0 842)" d="M102.2 675.6L293.85 675.6" stroke="#0000FF" stroke-width="0.48" fill="none" /><g transform="matrix(0.5146292 0 0 0.5098712 48.24 218.52)"><g transform="matrix(1 0 0 1 0 0)"><image x="0" y="0" xlink:href="img_23.png" width="998" height="466" /></g></g></g><g clip-path="url(#11)"><g clip-path="url(#12)"></g></g><g clip-path="url(#13)"><g transform="matrix(0.3602697 0 0 0.3603409 45.6 502.8)"><g transform="matrix(1 0 0 1 0 0)"><image x="0" y="0" xlink:href="img_24.png" width="445" height="352" /></g></g></g><g clip-path="url(#14)"><g clip-path="url(#15)"></g></g><g clip-path="url(#16)"><g transform="matrix(0.3607692 0 0 0.360678 228.6 502.44)"><g transform="matrix(1 0 0 1 0 0)"><image x="0" y="0" xlink:href="img_25.png" width="468" height="354" /></g></g></g><g clip-path="url(#17)"><g clip-path="url(#18)"></g></g><g clip-path="url(#19)"><g transform="matrix(0.3602559 0 0 0.3606741 412.56 501.6)"><g transform="matrix(1 0 0 1 0 0)"><image x="0" y="0" xlink:href="img_26.png" width="469" height="356" /></g></g></g><g clip-path="url(#20)"><g clip-path="url(#21)"></g></g></g></g></svg>