<svg xmlns="http://www.w3.org/2000/svg" xmlns:xlink="http://www.w3.org/1999/xlink" id="body_4" preserveAspectRatio="xMinYMin meet" viewBox="0 0 793 1123"><defs><clipPath id="1"><path id="" clip-rule="evenodd" transform="matrix(1 0 0 1 0 0)" d="M0 842L0 0L0 0L595.5 0L595.5 0L595.5 842L595.5 842L0 842z" /></clipPath><clipPath id="2"><path id="" clip-rule="evenodd" transform="matrix(1 0 0 1 0 0)" d="M0 0L595.5 0L595.5 0L595.5 842L595.5 842L0 842z" /></clipPath><clipPath id="3"><path id="" clip-rule="evenodd" transform="matrix(1 0 0 1 0 0)" d="M0 0L595.5 0L595.5 0L595.5 842L595.5 842L0 842z" /></clipPath><clipPath id="4"><path id="" clip-rule="evenodd" transform="matrix(1 0 0 1 0 0)" d="M41.3 431.45L328.9 431.45L328.9 431.45L328.9 458.15L328.9 458.15L41.3 458.15z" /></clipPath><clipPath id="5"><path id="" clip-rule="evenodd" transform="matrix(1 0 0 1 0 0)" d="M0 0L595.5 0L595.5 0L595.5 842L595.5 842L0 842z" /></clipPath><clipPath id="6"><path id="" clip-rule="evenodd" transform="matrix(1 0 0 1 0 0)" d="M49.55 474.9L347.35 474.9L347.35 474.9L347.35 640.75L347.35 640.75L49.55 640.75z" /></clipPath><clipPath id="7"><path id="" clip-rule="evenodd" transform="matrix(1 0 0 1 0 0)" d="M0 0L595.5 0L595.5 0L595.5 842L595.5 842L0 842z" /></clipPath><clipPath id="8"><path id="" clip-rule="evenodd" transform="matrix(1 0 0 1 0 0)" d="M48.45 34.70001L556.2 34.70001L556.2 34.70001L556.2 105.75L556.2 105.75L48.45 105.75z" /></clipPath><clipPath id="9"><path id="" clip-rule="evenodd" transform="matrix(1 0 0 1 0 0)" d="M0 0L595.5 0L595.5 0L595.5 842L595.5 842L0 842z" /></clipPath></defs><g transform="matrix(1.333333 0 0 1.333333 0 0)"><g clip-path="url(#1)"><g clip-path="url(#2)"><path id="1" transform="matrix(1 0 0 -1 0 842)" d="M0 843.32L595.32 843.32L595.32 843.32L595.32 -1L595.32 -1L0 -1z" stroke="none" fill="#F0EFEF" fill-rule="evenodd" /><path id="2" transform="matrix(1 0 0 -1 0 842)" d="M129.5 396.07L361.95 396.07L361.95 395.32L129.5 395.32z" stroke="none" fill="#404040" fill-rule="nonzero" /><g transform="matrix(0.3610588 0 0 0.3475325 41.28 440.16)"><g transform="matrix(1 0 0 1 0 0)"><image x="0" y="0" xlink:href="img_35.png" width="340" height="77" /></g></g></g><g clip-path="url(#3)"><g clip-path="url(#4)"></g></g><g clip-path="url(#5)"><g clip-path="url(#6)"><path id="67" transform="matrix(1 0 0 -1 0 842)" d="M117.95 307.2L309.6 307.2" stroke="#0000FF" stroke-width="0.48" fill="none" /><path id="111" transform="matrix(1 0 0 -1 0 842)" d="M108.7 261.45L277.2 261.45" stroke="#0000FF" stroke-width="0.48" fill="none" /><path id="147" transform="matrix(1 0 0 -1 0 842)" d="M100.55 215.75L227.4 215.75" stroke="#0000FF" stroke-width="0.48" fill="none" /></g></g><g clip-path="url(#7)"><g clip-path="url(#8)"></g></g><g clip-path="url(#9)"><g transform="matrix(0.4089686 0 0 0.4089897 48.24 117.2401)"><g transform="matrix(1 0 0 1 0 0)"><image x="0" y="0" xlink:href="img_36.png" width="892" height="485" /></g></g><g transform="matrix(0.3893023 0 0 0.3893023 96.24 140.88)"><g transform="matrix(1 0 0 1 0 0)"><image x="0" y="0" xlink:href="img_37.png" width="258" height="258" /></g></g><g transform="matrix(0.327013 0 0 0.3271533 414.6 117.24)"><g transform="matrix(1 0 0 1 0 0)"><image x="0" y="0" xlink:href="img_38.png" width="462" height="822" /></g></g></g></g></g></svg>