<svg xmlns="http://www.w3.org/2000/svg" xmlns:xlink="http://www.w3.org/1999/xlink" id="body_1" preserveAspectRatio="xMinYMin meet" viewBox="0 0 793 1123"><defs><clipPath id="1"><path id="" clip-rule="evenodd" transform="matrix(1 0 0 1 0 0)" d="M0 842L0 0L0 0L595.5 0L595.5 0L595.5 842L595.5 842L0 842z" /></clipPath><clipPath id="2"><path id="" clip-rule="evenodd" transform="matrix(1 0 0 1 0 0)" d="M0 0L595.5 0L595.5 0L595.5 842L595.5 842L0 842z" /></clipPath><clipPath id="3"><path id="" clip-rule="evenodd" transform="matrix(1 0 0 1 0 0)" d="M0 0L595.5 0L595.5 0L595.5 842L595.5 842L0 842z" /></clipPath><clipPath id="4"><path id="" clip-rule="evenodd" transform="matrix(1 0 0 1 0 0)" d="M-0.8 64.34998L377.1 64.34998L377.1 64.34998L377.1 828.8L377.1 828.8L-0.8 828.8z" /></clipPath><clipPath id="5"><path id="" clip-rule="evenodd" transform="matrix(1 0 0 1 0 0)" d="M0 0L595.5 0L595.5 0L595.5 842L595.5 842L0 842z" /></clipPath><clipPath id="6"><path id="" clip-rule="evenodd" transform="matrix(1 0 0 1 0 0)" d="M367.5 177L594.7 177L594.7 177L594.7 247.75L594.7 247.75L367.5 247.75z" /></clipPath><clipPath id="7"><path id="" clip-rule="evenodd" transform="matrix(1 0 0 1 0 0)" d="M0 0L595.5 0L595.5 0L595.5 842L595.5 842L0 842z" /></clipPath><clipPath id="8"><path id="" clip-rule="evenodd" transform="matrix(1 0 0 1 0 0)" d="M391.9 254.15L577.1 254.15L577.1 254.15L577.1 284.4L577.1 284.4L391.9 284.4z" /></clipPath><clipPath id="9"><path id="" clip-rule="evenodd" transform="matrix(1 0 0 1 0 0)" d="M0 0L595.5 0L595.5 0L595.5 842L595.5 842L0 842z" /></clipPath><clipPath id="10"><path id="" clip-rule="evenodd" transform="matrix(1 0 0 1 0 0)" d="M391.2 650.3L577.9 650.3L577.9 650.3L577.9 672.35L577.9 672.35L391.2 672.35z" /></clipPath><clipPath id="11"><path id="" clip-rule="evenodd" transform="matrix(1 0 0 1 0 0)" d="M0 0L595.5 0L595.5 0L595.5 842L595.5 842L0 842z" /></clipPath><clipPath id="12"><path id="" clip-rule="evenodd" transform="matrix(1 0 0 1 0 0)" d="M390.05 523.4L581.2 523.4L581.2 523.4L581.2 554.4L581.2 554.4L390.05 554.4z" /></clipPath><clipPath id="13"><path id="" clip-rule="evenodd" transform="matrix(1 0 0 1 0 0)" d="M0 0L595.5 0L595.5 0L595.5 842L595.5 842L0 842z" /></clipPath><clipPath id="14"><path id="" clip-rule="evenodd" transform="matrix(1 0 0 1 0 0)" d="M0 0L595.5 0L595.5 0L595.5 842L595.5 842L0 842z" /></clipPath><clipPath id="15"><path id="" clip-rule="evenodd" transform="matrix(1 0 0 1 0 0)" d="M417 293.15L604.4 293.15L604.4 293.15L604.4 510.95L604.4 510.95L417 510.95z" /></clipPath><clipPath id="16"><path id="" clip-rule="evenodd" transform="matrix(1 0 0 1 0 0)" d="M0 0L595.5 0L595.5 0L595.5 842L595.5 842L0 842z" /></clipPath><clipPath id="17"><path id="" clip-rule="evenodd" transform="matrix(1 0 0 1 0 0)" d="M417.4 580.5L597.3 580.5L597.3 580.5L597.3 631.9L597.3 631.9L417.4 631.9z" /></clipPath><clipPath id="18"><path id="" clip-rule="evenodd" transform="matrix(1 0 0 1 0 0)" d="M0 0L595.5 0L595.5 0L595.5 842L595.5 842L0 842z" /></clipPath><clipPath id="19"><path id="" clip-rule="evenodd" transform="matrix(1 0 0 1 0 0)" d="M418.4 702.45L666.3 702.45L666.3 702.45L666.3 823.35L666.3 823.35L418.4 823.35z" /></clipPath></defs><g transform="matrix(1.333333 0 0 1.333333 0 0)"><g clip-path="url(#1)"><g clip-path="url(#2)"><path id="1" transform="matrix(1 0 0 -1 0 842)" d="M370.08 842L375 842L375 842L375 0.08001709L375 0.08001709L370.08 0.08001709z" stroke="none" fill="#88677E" fill-rule="evenodd" /><path id="2" transform="matrix(1 0 0 -1 0 842)" d="M375 842L595.32 842L595.32 842L595.32 0.08001709L595.32 0.08001709L375 0.08001709z" stroke="none" fill="#252525" fill-rule="evenodd" /><path id="3" transform="matrix(1 0 0 -1 0 842)" d="M413.599 746.259L413.599 746.341L413.699 742.641L413.695 742.721L413.995 739.021L413.986 739.106L414.486 735.506L414.472 735.59L415.172 732.04L415.158 732.104L416.008 728.604L415.983 728.693L417.033 725.293L417.005 725.374L418.255 722.024L418.232 722.083L419.582 718.883L419.55 718.954L421.1 715.754L421.051 715.847L422.801 712.797L422.771 712.847L424.621 709.897L424.578 709.962L426.578 707.112L426.532 707.174L428.682 704.424L428.633 704.483L430.933 701.833L430.882 701.889L433.332 699.339L433.267 699.403L435.817 697.053L435.783 697.083L438.433 694.783L438.35 694.85L441.15 692.75L441.102 692.785L444.002 690.785L443.937 690.827L446.937 688.977L446.871 689.015L449.971 687.315L449.887 687.358L453.087 685.858L453.036 685.881L456.336 684.481L456.256 684.512L459.606 683.312L459.537 683.335L462.987 682.285L462.899 682.309L466.449 681.459L466.367 681.476L469.967 680.826L469.904 680.836L473.554 680.336L473.471 680.345L477.171 680.045L477.089 680.049L480.889 679.949L480.81 679.949L484.56 680.049L484.479 680.045L488.179 680.345L488.099 680.337L491.799 680.837L491.73 680.825L495.28 681.475L495.201 681.459L498.751 682.309L498.663 682.285L502.113 683.335L502.044 683.312L505.394 684.512L505.314 684.481L508.614 685.881L508.563 685.858L511.763 687.358L511.679 687.315L514.779 689.015L514.713 688.977L517.713 690.827L517.648 690.785L520.548 692.785L520.5 692.75L523.3 694.85L523.217 694.783L525.867 697.083L525.833 697.053L528.383 699.403L528.318 699.339L530.768 701.889L530.717 701.833L533.017 704.483L532.968 704.424L535.118 707.174L535.072 707.112L537.072 709.962L537.029 709.897L538.879 712.847L538.849 712.797L540.599 715.847L540.55 715.754L542.1 718.954L542.068 718.883L543.418 722.083L543.395 722.024L544.645 725.374L544.617 725.293L545.667 728.693L545.642 728.604L546.492 732.104L546.478 732.04L547.178 735.59L547.164 735.506L547.664 739.106L547.655 739.021L547.955 742.721L547.951 742.641L548.051 746.341L548.051 746.259L547.951 749.959L547.955 749.879L547.655 753.579L547.664 753.494L547.164 757.094L547.178 757.01L546.478 760.56L546.492 760.496L545.642 763.996L545.667 763.907L544.617 767.307L544.645 767.226L543.395 770.576L543.418 770.517L542.068 773.717L542.1 773.646L540.55 776.846L540.599 776.754L538.849 779.804L538.879 779.753L537.029 782.703L537.072 782.638L535.072 785.488L535.118 785.426L532.968 788.176L533.017 788.117L530.717 790.767L530.768 790.711L528.318 793.261L528.383 793.197L525.833 795.547L525.867 795.517L523.217 797.817L523.3 797.75L520.5 799.85L520.548 799.815L517.648 801.815L517.713 801.773L514.713 803.623L514.779 803.585L511.679 805.285L511.763 805.242L508.563 806.742L508.614 806.719L505.314 808.119L505.394 808.088L502.044 809.288L502.113 809.265L498.663 810.315L498.751 810.291L495.201 811.141L495.28 811.125L491.73 811.775L491.799 811.764L488.099 812.264L488.179 812.255L484.479 812.555L484.56 812.551L480.81 812.651L480.889 812.651L477.089 812.551L477.171 812.555L473.471 812.255L473.554 812.264L469.904 811.764L469.967 811.774L466.367 811.124L466.449 811.141L462.899 810.291L462.987 810.315L459.537 809.265L459.606 809.288L456.256 808.088L456.336 808.119L453.036 806.719L453.087 806.742L449.887 805.242L449.971 805.285L446.871 803.585L446.937 803.623L443.937 801.773L444.002 801.815L441.102 799.815L441.15 799.85L438.35 797.75L438.433 797.817L435.783 795.517L435.817 795.547L433.267 793.197L433.332 793.261L430.882 790.711L430.933 790.767L428.633 788.117L428.682 788.176L426.532 785.426L426.578 785.488L424.578 782.638L424.621 782.703L422.771 779.753L422.801 779.804L421.051 776.754L421.1 776.846L419.55 773.646L419.582 773.717L418.232 770.517L418.255 770.576L417.005 767.226L417.033 767.307L415.983 763.907L416.008 763.996L415.158 760.496L415.172 760.56L414.472 757.01L414.486 757.094L413.986 753.494L413.995 753.579L413.695 749.879L413.699 749.959L413.599 746.259M410.701 750.041L410.705 750.121L411.005 753.821L411.014 753.906L411.514 757.506L411.528 757.59L412.228 761.14L412.242 761.204L413.092 764.704L413.117 764.793L414.167 768.193L414.195 768.274L415.445 771.624L415.468 771.683L416.818 774.883L416.85 774.954L418.4 778.154L418.449 778.247L420.199 781.297L420.229 781.347L422.079 784.297L422.122 784.362L424.122 787.212L424.168 787.274L426.318 790.024L426.367 790.083L428.667 792.733L428.718 792.789L431.168 795.339L431.233 795.403L433.783 797.753L433.817 797.783L436.467 800.083L436.55 800.15L439.35 802.25L439.398 802.285L442.298 804.285L442.363 804.327L445.363 806.177L445.429 806.215L448.529 807.915L448.613 807.958L451.813 809.458L451.864 809.481L455.164 810.881L455.244 810.912L458.594 812.112L458.663 812.135L462.113 813.185L462.201 813.209L465.751 814.059L465.833 814.076L469.433 814.726L469.496 814.736L473.146 815.236L473.229 815.245L476.929 815.545L477.011 815.549L480.811 815.649L480.89 815.649L484.64 815.549L484.721 815.545L488.421 815.245L488.501 815.236L492.201 814.736L492.27 814.725L495.82 814.075L495.899 814.059L499.449 813.209L499.537 813.185L502.987 812.135L503.056 812.112L506.406 810.912L506.486 810.881L509.786 809.481L509.837 809.458L513.037 807.958L513.121 807.915L516.221 806.215L516.287 806.177L519.287 804.327L519.352 804.285L522.252 802.285L522.3 802.25L525.1 800.15L525.183 800.083L527.833 797.783L527.867 797.753L530.417 795.403L530.482 795.339L532.932 792.789L532.983 792.733L535.283 790.083L535.332 790.024L537.482 787.274L537.528 787.212L539.528 784.362L539.571 784.297L541.421 781.347L541.451 781.297L543.201 778.247L543.25 778.154L544.8 774.954L544.832 774.883L546.182 771.683L546.205 771.624L547.455 768.274L547.483 768.193L548.533 764.793L548.558 764.704L549.408 761.204L549.422 761.14L550.122 757.59L550.136 757.506L550.636 753.906L550.645 753.821L550.945 750.121L550.949 750.041L551.049 746.341L551.049 746.259L550.949 742.559L550.945 742.479L550.645 738.779L550.636 738.694L550.136 735.094L550.122 735.01L549.422 731.46L549.408 731.396L548.558 727.896L548.533 727.807L547.483 724.407L547.455 724.326L546.205 720.976L546.182 720.917L544.832 717.717L544.8 717.646L543.25 714.446L543.201 714.354L541.451 711.303L541.421 711.253L539.571 708.303L539.528 708.238L537.528 705.388L537.482 705.326L535.332 702.576L535.283 702.517L532.983 699.867L532.932 699.811L530.482 697.261L530.417 697.197L527.867 694.847L527.833 694.817L525.183 692.517L525.1 692.45L522.3 690.35L522.252 690.315L519.352 688.315L519.287 688.273L516.287 686.423L516.221 686.385L513.121 684.685L513.037 684.642L509.837 683.142L509.786 683.119L506.486 681.719L506.406 681.688L503.056 680.488L502.987 680.465L499.537 679.415L499.449 679.391L495.899 678.541L495.82 678.525L492.27 677.875L492.201 677.864L488.501 677.364L488.421 677.355L484.721 677.055L484.64 677.051L480.89 676.951L480.811 676.951L477.011 677.051L476.929 677.055L473.229 677.355L473.146 677.364L469.496 677.864L469.433 677.874L465.833 678.524L465.751 678.541L462.201 679.391L462.113 679.415L458.663 680.465L458.594 680.488L455.244 681.688L455.164 681.719L451.864 683.119L451.813 683.142L448.613 684.642L448.529 684.685L445.429 686.385L445.363 686.423L442.363 688.273L442.298 688.315L439.398 690.315L439.35 690.35L436.55 692.45L436.467 692.517L433.817 694.817L433.783 694.847L431.233 697.197L431.168 697.261L428.718 699.811L428.667 699.867L426.367 702.517L426.318 702.576L424.168 705.326L424.122 705.388L422.122 708.238L422.079 708.303L420.229 711.253L420.199 711.303L418.449 714.354L418.4 714.446L416.85 717.646L416.818 717.717L415.468 720.917L415.445 720.976L414.195 724.326L414.167 724.407L413.117 727.807L413.092 727.896L412.242 731.396L412.228 731.46L411.528 735.01L411.514 735.094L411.014 738.694L411.005 738.779L410.705 742.479L410.701 742.559L410.601 746.259L410.601 746.341L410.701 750.041z" stroke="none" fill="#FFFFFF" fill-rule="nonzero" /><path id="4" transform="matrix(1 0 0 -1 0 842)" d="M-0.96 842L371.4 842L371.4 842L371.4 0.2000122L371.4 0.2000122L-0.96 0.2000122z" stroke="none" fill="#F0EFEF" fill-rule="evenodd" /><g transform="matrix(0.3754098 0 0 0.3749171 412.08 27.83997)"><g transform="matrix(1 0 0 1 0 0)"><image x="0" y="0" xlink:href="img_01.png" width="366" height="362" /></g></g><g transform="matrix(0.3604598 0 0 0.3605042 433.8 52.80005)"><g transform="matrix(1 0 0 1 0 0)"><image x="0" y="0" xlink:href="img_02.png" width="261" height="238" /></g></g><g transform="matrix(0.36 0 0 0.36 28.56 26.76001)"><g transform="matrix(1 0 0 1 0 0)"><image x="0" y="0" xlink:href="img_03.png" width="341" height="86" /></g></g><path id="8" transform="matrix(1 0 0 -1 0 842)" d="M117.4 789.575L349.85 789.575L349.85 788.825L117.4 788.825z" stroke="none" fill="#404040" fill-rule="nonzero" /><g transform="matrix(0.3601351 0 0 0.3607861 33.96 64.80005)"><g transform="matrix(1 0 0 1 0 0)"><image x="0" y="0" xlink:href="img_04.png" width="888" height="458" /></g></g><g transform="matrix(0.3249231 0 0 0.3237209 41.16 132.0001)"><g transform="matrix(1 0 0 1 0 0)"><image x="0" y="0" xlink:href="img_05.png" width="65" height="43" /></g></g><path id="11" transform="matrix(1 0 0 -1 0 842)" d="M567.45 582.4L402.85 582.4L402.85 582.4L399.2 581.8L399.2 581.8L396.05 580.2L396.05 580.2L393.55 577.7L393.55 577.7L391.95 574.55L391.95 574.55L391.35 570.95L391.35 570.95L391.95 567.3L391.95 567.3L393.55 564.15L393.55 564.15L396.05 561.65L396.05 561.65L399.2 560.05L399.2 560.05L402.85 559.45L402.85 559.45L567.4 559.45L567.4 559.45L571.05 560.05L571.05 560.05L574.2 561.65L574.2 561.65L576.7 564.15L576.7 564.15L578.3 567.3L578.3 567.3L578.9 570.95L578.9 570.95L578.3 574.55L578.3 574.55L576.7 577.7L576.7 577.7L574.2 580.2L574.2 580.2L571.05 581.8L571.05 581.8L567.45 582.4" stroke="none" fill="#FFFFFF" fill-rule="evenodd" /><path id="12" transform="matrix(1 0 0 -1 0 842)" d="M391.646 570.901L391.646 570.999L392.246 567.349L392.217 567.436L393.817 564.286L393.762 564.362L396.262 561.862L396.186 561.918L399.336 560.318L399.249 560.346L402.899 559.746L402.85 559.75L567.4 559.75L567.351 559.746L571.001 560.346L570.914 560.318L574.064 561.918L573.988 561.862L576.488 564.362L576.433 564.286L578.033 567.436L578.004 567.349L578.604 570.999L578.604 570.901L578.004 574.501L578.033 574.414L576.433 577.564L576.488 577.488L573.988 579.988L574.064 579.933L570.914 581.533L571.001 581.504L567.401 582.104L567.45 582.1L402.85 582.1L402.899 582.104L399.249 581.504L399.336 581.533L396.186 579.933L396.262 579.988L393.762 577.488L393.817 577.564L392.217 574.414L392.246 574.501L391.646 570.901M391.654 574.599L391.683 574.686L393.283 577.836L393.338 577.912L395.838 580.412L395.914 580.467L399.064 582.068L399.151 582.096L402.801 582.696L402.85 582.7L567.45 582.7L567.499 582.696L571.099 582.096L571.186 582.068L574.336 580.467L574.412 580.412L576.912 577.912L576.967 577.836L578.567 574.686L578.596 574.599L579.196 570.999L579.196 570.901L578.596 567.251L578.567 567.164L576.967 564.014L576.912 563.938L574.412 561.438L574.336 561.383L571.186 559.783L571.099 559.754L567.449 559.154L567.4 559.15L402.85 559.15L402.801 559.154L399.151 559.754L399.064 559.783L395.914 561.383L395.838 561.438L393.338 563.938L393.283 564.014L391.683 567.164L391.654 567.251L391.054 570.901L391.054 570.999L391.654 574.599z" stroke="none" fill="#FFFFFF" fill-rule="nonzero" /><g transform="matrix(0.24 0 0 0.36 71.76 -0.1199341)"><g transform="matrix(1 0 0 1 0 0)"><image x="0" y="0" xlink:href="img_06.png" width="1" height="1" /></g></g><g transform="matrix(0.24 0 0 0.36 71.76 -0.1199341)"><g transform="matrix(1 0 0 1 0 0)"><image x="0" y="0" xlink:href="img_06.png" width="1" height="1" /></g></g><path id="15" transform="matrix(1 0 0 -1 0 842)" d="M567.45 310.7L402.85 310.7L402.85 310.7L399.2 310.1L399.2 310.1L396.05 308.5L396.05 308.5L393.55 306L393.55 306L391.95 302.85L391.95 302.85L391.35 299.25L391.35 299.25L391.95 295.6L391.95 295.6L393.55 292.45L393.55 292.45L396.05 289.95L396.05 289.95L399.2 288.35L399.2 288.35L402.85 287.75L402.85 287.75L567.4 287.75L567.4 287.75L571.05 288.35L571.05 288.35L574.2 289.95L574.2 289.95L576.7 292.45L576.7 292.45L578.3 295.6L578.3 295.6L578.9 299.25L578.9 299.25L578.3 302.85L578.3 302.85L576.7 306L576.7 306L574.2 308.5L574.2 308.5L571.05 310.1L571.05 310.1L567.45 310.7" stroke="none" fill="#FFFFFF" fill-rule="evenodd" /><path id="16" transform="matrix(1 0 0 -1 0 842)" d="M391.646 299.201L391.646 299.299L392.246 295.649L392.217 295.736L393.817 292.586L393.762 292.662L396.262 290.162L396.186 290.217L399.336 288.617L399.249 288.646L402.899 288.046L402.85 288.05L567.4 288.05L567.351 288.046L571.001 288.646L570.914 288.617L574.064 290.217L573.988 290.162L576.488 292.662L576.433 292.586L578.033 295.736L578.004 295.649L578.604 299.299L578.604 299.201L578.004 302.801L578.033 302.714L576.433 305.864L576.488 305.788L573.988 308.288L574.064 308.233L570.914 309.833L571.001 309.804L567.401 310.404L567.45 310.4L402.85 310.4L402.899 310.404L399.249 309.804L399.336 309.833L396.186 308.233L396.262 308.288L393.762 305.788L393.817 305.864L392.217 302.714L392.246 302.801L391.646 299.201M391.654 302.899L391.683 302.986L393.283 306.136L393.338 306.212L395.838 308.712L395.914 308.767L399.064 310.367L399.151 310.396L402.801 310.996L402.85 311L567.45 311L567.499 310.996L571.099 310.396L571.186 310.367L574.336 308.767L574.412 308.712L576.912 306.212L576.967 306.136L578.567 302.986L578.596 302.899L579.196 299.299L579.196 299.201L578.596 295.551L578.567 295.464L576.967 292.314L576.912 292.238L574.412 289.738L574.336 289.683L571.186 288.083L571.099 288.054L567.449 287.454L567.4 287.45L402.85 287.45L402.801 287.454L399.151 288.054L399.064 288.083L395.914 289.683L395.838 289.738L393.338 292.238L393.283 292.314L391.683 295.464L391.654 295.551L391.054 299.201L391.054 299.299L391.654 302.899z" stroke="none" fill="#FFFFFF" fill-rule="nonzero" /><g transform="matrix(0.24 0 0 0.36 71.76 -0.1199341)"><g transform="matrix(1 0 0 1 0 0)"><image x="0" y="0" xlink:href="img_06.png" width="1" height="1" /></g></g><g transform="matrix(0.24 0 0 0.36 71.76 -0.1199341)"><g transform="matrix(1 0 0 1 0 0)"><image x="0" y="0" xlink:href="img_06.png" width="1" height="1" /></g></g><g transform="matrix(0.24 0 0 0.36 71.76 -0.1199341)"><g transform="matrix(1 0 0 1 0 0)"><image x="0" y="0" xlink:href="img_06.png" width="1" height="1" /></g></g><g transform="matrix(0.3607454 0 0 0.36 408.84 577.08)"><g transform="matrix(1 0 0 1 0 0)"><image x="0" y="0" xlink:href="img_07.png" width="483" height="65" /></g></g><g transform="matrix(0.3605479 0 0 0.36375 408.84 542.52)"><g transform="matrix(1 0 0 1 0 0)"><image x="0" y="0" xlink:href="img_08.png" width="438" height="64" /></g></g><g transform="matrix(0.3605479 0 0 0.36375 408.84 763.4399)"><g transform="matrix(1 0 0 1 0 0)"><image x="0" y="0" xlink:href="img_08.png" width="438" height="64" /></g></g><path id="23" transform="matrix(1 0 0 -1 0 842)" d="M567.45 192.2L402.85 192.2L402.85 192.2L399.2 191.6L399.2 191.6L396.05 190L396.05 190L393.55 187.5L393.55 187.5L391.95 184.35L391.95 184.35L391.35 180.75L391.35 180.75L391.95 177.1L391.95 177.1L393.55 173.95L393.55 173.95L396.05 171.45L396.05 171.45L399.2 169.85L399.2 169.85L402.85 169.25L402.85 169.25L567.4 169.25L567.4 169.25L571.05 169.85L571.05 169.85L574.2 171.45L574.2 171.45L576.7 173.95L576.7 173.95L578.3 177.1L578.3 177.1L578.9 180.75L578.9 180.75L578.3 184.35L578.3 184.35L576.7 187.5L576.7 187.5L574.2 190L574.2 190L571.05 191.6L571.05 191.6L567.45 192.2" stroke="none" fill="#FFFFFF" fill-rule="evenodd" /><path id="24" transform="matrix(1 0 0 -1 0 842)" d="M391.646 180.701L391.646 180.799L392.246 177.149L392.217 177.236L393.817 174.086L393.762 174.162L396.262 171.662L396.186 171.717L399.336 170.117L399.249 170.146L402.899 169.546L402.85 169.55L567.4 169.55L567.351 169.546L571.001 170.146L570.914 170.117L574.064 171.717L573.988 171.662L576.488 174.162L576.433 174.086L578.033 177.236L578.004 177.149L578.604 180.799L578.604 180.701L578.004 184.301L578.033 184.214L576.433 187.364L576.488 187.288L573.988 189.788L574.064 189.733L570.914 191.333L571.001 191.304L567.401 191.904L567.45 191.9L402.85 191.9L402.899 191.904L399.249 191.304L399.336 191.333L396.186 189.733L396.262 189.788L393.762 187.288L393.817 187.364L392.217 184.214L392.246 184.301L391.646 180.701M391.654 184.399L391.683 184.486L393.283 187.636L393.338 187.712L395.838 190.212L395.914 190.267L399.064 191.867L399.151 191.896L402.801 192.496L402.85 192.5L567.45 192.5L567.499 192.496L571.099 191.896L571.186 191.867L574.336 190.267L574.412 190.212L576.912 187.712L576.967 187.636L578.567 184.486L578.596 184.399L579.196 180.799L579.196 180.701L578.596 177.051L578.567 176.964L576.967 173.814L576.912 173.738L574.412 171.238L574.336 171.183L571.186 169.583L571.099 169.554L567.449 168.954L567.4 168.95L402.85 168.95L402.801 168.954L399.151 169.554L399.064 169.583L395.914 171.183L395.838 171.238L393.338 173.738L393.283 173.814L391.683 176.964L391.654 177.051L391.054 180.701L391.054 180.799L391.654 184.399z" stroke="none" fill="#FFFFFF" fill-rule="nonzero" /><g transform="matrix(0.3603133 0 0 0.3636364 410.16 648.96)"><g transform="matrix(1 0 0 1 0 0)"><image x="0" y="0" xlink:href="img_09.png" width="383" height="66" /></g></g><path id="26" transform="matrix(1 0 0 -1 0 842)" d="M118.25 596.325L350.7 596.325L350.7 595.575L118.25 595.575z" stroke="none" fill="#404040" fill-rule="nonzero" /><g transform="matrix(0.3607059 0 0 0.3636364 30.6 248.64)"><g transform="matrix(1 0 0 1 0 0)"><image x="0" y="0" xlink:href="img_10.png" width="340" height="66" /></g></g><path id="28" transform="matrix(1 0 0 -1 0 842)" d="M118.25 144.375L350.7 144.375L350.7 143.625L118.25 143.625z" stroke="none" fill="#404040" fill-rule="nonzero" /></g><g clip-path="url(#3)"><g clip-path="url(#4)"></g></g><g clip-path="url(#5)"><g clip-path="url(#6)"></g></g><g clip-path="url(#7)"><g clip-path="url(#8)"></g></g><g clip-path="url(#9)"><g clip-path="url(#10)"></g></g><g clip-path="url(#11)"><g clip-path="url(#12)"></g></g><g clip-path="url(#13)"><g transform="matrix(0.3733333 0 0 0.3781818 395.76 330)"><g transform="matrix(1 0 0 1 0 0)"><image x="0" y="0" xlink:href="img_11.png" width="45" height="33" /></g></g><g transform="matrix(0.3753846 0 0 0.375 396.72 297)"><g transform="matrix(1 0 0 1 0 0)"><image x="0" y="0" xlink:href="img_12.png" width="39" height="40" /></g></g><g transform="matrix(0.3767442 0 0 0.3736364 394.8 354.96)"><g transform="matrix(1 0 0 1 0 0)"><image x="0" y="0" xlink:href="img_13.png" width="43" height="44" /></g></g><g transform="matrix(0.3711628 0 0 0.3771429 395.76 384.48)"><g transform="matrix(1 0 0 1 0 0)"><image x="0" y="0" xlink:href="img_14.png" width="43" height="56" /></g></g><g transform="matrix(0.3711628 0 0 0.38 395.76 423.72)"><g transform="matrix(1 0 0 1 0 0)"><image x="0" y="0" xlink:href="img_15.png" width="43" height="42" /></g></g><g transform="matrix(0.3746939 0 0 0.3724138 394.8 583.56)"><g transform="matrix(1 0 0 1 0 0)"><image x="0" y="0" xlink:href="img_16.png" width="49" height="29" /></g></g><g transform="matrix(0.3784615 0 0 0.37125 396.6 616.68)"><g transform="matrix(1 0 0 1 0 0)"><image x="0" y="0" xlink:href="img_17.png" width="39" height="32" /></g></g><path id="626" transform="matrix(1 0 0 -1 0 842)" d="M405.35 144.35L404 144.35L404 144.35L404 136.7L404 136.7L405.35 136.7L405.35 136.7L405.35 144.35M405.35 135.6L404 135.6L404 135.6L404 134.95L404 134.95L405.35 134.95L405.35 134.95L405.35 135.6zM401 135.6L400.35 135.6L400.35 135.6L400.35 134.95L400.35 134.95L401 134.95L401 134.95L400.95 134.95L400.95 134.95L400.9 135.05L400.9 135.05L400.85 135.05L400.85 135.05L400.85 135.1L400.85 135.1L400.8 135.2L400.8 135.2L400.85 135.4L400.85 135.4L400.85 135.45L400.85 135.45L400.9 135.5L400.9 135.5L400.95 135.55L400.95 135.55L400.95 135.6L400.95 135.6L401 135.6zM405.35 135.7L401.3 135.7L401.3 135.7L401.35 135.65L401.35 135.65L401.45 135.65L401.45 135.65L401.5 135.6L401.5 135.6L401.55 135.55L401.55 135.55L401.6 135.55L401.6 135.55L401.6 135.5L401.6 135.5L401.6 135.45L401.6 135.45L401.65 135.45L401.65 135.45L401.65 135.4L401.65 135.4L401.65 135.2L401.65 135.2L401.65 135.15L401.65 135.15L401.65 135.1L401.65 135.1L401.6 135.05L401.6 135.05L401.6 135L401.6 135L401.55 134.95L401.55 134.95L401.5 134.95L401.5 134.95L401.45 134.9L401.45 134.9L401.35 134.85L401.35 134.85L405.35 134.85L405.35 134.85L405.35 134.95L405.35 134.95L402.15 134.95L402.15 134.95L402.15 135.6L402.15 135.6L405.35 135.6L405.35 135.6L405.35 135.7zM405.35 134.25L404 134.25L404 134.25L404 133.6L404 133.6L405.35 133.6L405.35 133.6L405.35 134.25zM402.55 134.25L402 134.25L402 134.25L402 133.6L402 133.6L402.55 133.6L402.55 133.6L402.55 134.25zM400.5 134.25L399.95 134.25L399.95 134.25L399.95 133.6L399.95 133.6L400.5 133.6L400.5 133.6L400.5 134.25zM405.35 133.05L404 133.05L404 133.05L404 132.4L404 132.4L405.35 132.4L405.35 132.4L405.35 133.05zM402.55 133.05L402 133.05L402 133.05L402 132.4L402 132.4L402.55 132.4L402.55 132.4L402.55 133.05zM400.5 133.05L399.95 133.05L399.95 133.05L399.95 132.4L399.95 132.4L400.5 132.4L400.5 132.4L400.5 133.05zM405.35 131.85L404 131.85L404 131.85L404 131.15L404 131.15L405.35 131.15L405.35 131.15L405.35 131.85zM402.55 131.85L402 131.85L402 131.85L402 131.15L402 131.15L402.55 131.15L402.55 131.15L402.55 131.85zM400.5 131.85L399.95 131.85L399.95 131.85L399.95 131.15L399.95 131.15L400.5 131.15L400.5 131.15L400.5 131.85zM413.7 130.5L410.9 130.5L410.9 130.5L410.9 129.45L410.9 129.45L414.15 129.45L414.15 129.45L413.7 130.5zM404.4 145.7L398 145.7L398 145.7L397.8 145.65L397.8 145.65L397.75 145.65L397.75 145.65L397.65 145.6L397.65 145.6L397.6 145.6L397.6 145.6L397.55 145.55L397.55 145.55L397.5 145.55L397.5 145.55L397.45 145.45L397.45 145.45L397.35 145.4L397.35 145.4L397.35 145.35L397.35 145.35L397.3 145.35L397.3 145.35L397.2 145.2L397.2 145.2L397.2 145.15L397.2 145.15L397.15 145.1L397.15 145.1L397.15 145.05L397.15 145.05L397.1 144.95L397.1 144.95L397.05 144.85L397.05 144.85L397.05 130.1L397.05 130.1L397.1 130L397.1 130L397.15 129.9L397.15 129.9L397.15 129.85L397.15 129.85L397.2 129.8L397.2 129.8L397.2 129.75L397.2 129.75L397.35 129.6L397.35 129.6L397.4 129.5L397.4 129.5L397.45 129.5L397.45 129.5L397.45 129.45L397.45 129.45L397.5 129.4L397.5 129.4L397.55 129.4L397.55 129.4L397.65 129.35L397.65 129.35L397.7 129.3L397.7 129.3L397.75 129.3L397.75 129.3L397.8 129.3L397.8 129.3L398 129.25L398 129.25L404.4 129.25L404.4 129.25L404.6 129.3L404.6 129.3L404.65 129.3L404.65 129.3L404.7 129.3L404.7 129.3L404.75 129.35L404.75 129.35L404.8 129.35L404.8 129.35L404.85 129.4L404.85 129.4L405 129.5L405 129.5L405.05 129.55L405.05 129.55L405.1 129.6L405.1 129.6L405.15 129.7L405.15 129.7L405.2 129.75L405.2 129.75L405.2 129.8L405.2 129.8L405.25 129.9L405.25 129.9L405.3 129.9L405.3 129.9L405.3 129.95L405.3 129.95L405.3 130L405.3 130L405.35 130.1L405.35 130.1L405.35 131.15L405.35 131.15L398.45 131.15L398.45 131.15L398.45 131.85L398.45 131.85L405.35 131.85L405.35 131.85L405.35 132.4L405.35 132.4L398.45 132.4L398.45 132.4L398.45 133.05L398.45 133.05L405.35 133.05L405.35 133.05L405.35 133.6L405.35 133.6L398.45 133.6L398.45 133.6L398.45 134.25L398.45 134.25L405.35 134.25L405.35 134.25L405.35 134.85L405.35 134.85L401.15 134.85L401.15 134.85L401.1 134.85L401.1 134.85L401.05 134.9L401.05 134.9L401 134.95L401 134.95L398.45 134.95L398.45 134.95L398.45 135.6L398.45 135.6L401 135.6L401 135.6L401.05 135.65L401.05 135.65L401.1 135.65L401.1 135.65L401.15 135.65L401.15 135.65L401.2 135.7L401.2 135.7L405.35 135.7L405.35 135.7L405.35 136.7L405.35 136.7L398.45 136.7L398.45 136.7L398.45 144.35L398.45 144.35L405.35 144.35L405.35 144.35L405.35 144.85L405.35 144.85L405.3 144.95L405.3 144.95L405.3 145L405.3 145L405.3 145.05L405.3 145.05L405.25 145.1L405.25 145.1L405.2 145.15L405.2 145.15L405.2 145.2L405.2 145.2L405.15 145.25L405.15 145.25L405.1 145.35L405.1 145.35L405.05 145.35L405.05 145.35L405 145.45L405 145.45L404.9 145.55L404.9 145.55L404.85 145.55L404.85 145.55L404.8 145.6L404.8 145.6L404.7 145.6L404.7 145.6L404.6 145.65L404.6 145.65L404.4 145.7zM413.1 132L406.5 132L406.5 132L406.5 130.15L406.5 130.15L406.5 130L406.5 130L406.45 129.75L406.45 129.75L406.45 129.7L406.45 129.7L406.4 129.6L406.4 129.6L406.35 129.4L406.35 129.4L406.3 129.3L406.3 129.3L406.25 129.2L406.25 129.2L406.2 129.15L406.2 129.15L406.1 128.95L406.1 128.95L405.85 128.7L405.85 128.7L405.8 128.65L405.8 128.65L405.7 128.55L405.7 128.55L405.65 128.5L405.65 128.5L405.55 128.45L405.55 128.45L405.45 128.4L405.45 128.4L405.35 128.35L405.35 128.35L405.25 128.3L405.25 128.3L405.15 128.25L405.15 128.25L405.05 128.2L405.05 128.2L404.95 128.15L404.95 128.15L404.85 128.15L404.85 128.15L404.75 128.1L404.75 128.1L404.55 128.05L404.55 128.05L404.45 128.05L404.45 128.05L404.3 128.05L404.3 128.05L414.3 128.05L414.3 128.05L414.3 129.1L414.3 129.1L414.15 129.45L414.15 129.45L408.65 129.45L408.65 129.45L408.65 130.5L408.65 130.5L413.7 130.5L413.7 130.5L413.1 132zM395.9 132L394.65 132L394.65 132L393.75 129.15L393.75 129.15L393.75 126.85L393.75 126.85L414.3 126.85L414.3 126.85L414.3 128.05L414.3 128.05L398.1 128.05L398.1 128.05L397.95 128.05L397.95 128.05L397.85 128.05L397.85 128.05L397.55 128.15L397.55 128.15L397.45 128.15L397.45 128.15L397.35 128.2L397.35 128.2L397.25 128.25L397.25 128.25L397.15 128.3L397.15 128.3L396.95 128.4L396.95 128.4L396.75 128.5L396.75 128.5L396.55 128.7L396.55 128.7L396.3 128.95L396.3 128.95L396.2 129.15L396.2 129.15L396.15 129.2L396.15 129.2L396.1 129.3L396.1 129.3L396 129.5L396 129.5L396 129.6L396 129.6L395.95 129.7L395.95 129.7L395.95 129.75L395.95 129.75L395.9 130L395.9 130L395.9 130.15L395.9 130.15L395.9 132z" stroke="none" fill="#FFFFFF" fill-rule="evenodd" /><g transform="matrix(0.3767442 0 0 0.38 395.88 800.64)"><g transform="matrix(1 0 0 1 0 0)"><image x="0" y="0" xlink:href="img_18.png" width="43" height="42" /></g></g><g transform="matrix(0.3766667 0 0 0.3742857 397.2 765.24)"><g transform="matrix(1 0 0 1 0 0)"><image x="0" y="0" xlink:href="img_19.png" width="36" height="42" /></g></g><g transform="matrix(0.375 0 0 0.3682759 396.6 734.88)"><g transform="matrix(1 0 0 1 0 0)"><image x="0" y="0" xlink:href="img_20.png" width="40" height="29" /></g></g><g transform="matrix(0.5025 0 0 0.5025 395.4 457.2)"><g transform="matrix(1 0 0 1 0 0)"><image x="0" y="0" xlink:href="img_21.png" width="32" height="32" /></g></g></g><g clip-path="url(#14)"><g clip-path="url(#15)"></g></g><g clip-path="url(#16)"><g clip-path="url(#17)"></g></g><g clip-path="url(#18)"><g clip-path="url(#19)"></g></g></g></g></svg>