<svg xmlns="http://www.w3.org/2000/svg" xmlns:xlink="http://www.w3.org/1999/xlink" id="body_4" preserveAspectRatio="xMinYMin meet" viewBox="0 0 793 1123"><defs><clipPath id="1"><path id="" clip-rule="evenodd" transform="matrix(1 0 0 1 0 0)" d="M0 842L0 0L0 0L595.5 0L595.5 0L595.5 842L595.5 842L0 842z" /></clipPath><clipPath id="2"><path id="" clip-rule="evenodd" transform="matrix(1 0 0 1 0 0)" d="M0 0L595.5 0L595.5 0L595.5 842L595.5 842L0 842z" /></clipPath><clipPath id="3"><path id="" clip-rule="evenodd" transform="matrix(1 0 0 1 0 0)" d="M0 0L595.5 0L595.5 0L595.5 842L595.5 842L0 842z" /></clipPath><clipPath id="4"><path id="" clip-rule="evenodd" transform="matrix(1 0 0 1 0 0)" d="M41.3 625.8L361.95 625.8L361.95 625.8L361.95 653.55L361.95 653.55L41.3 653.55z" /></clipPath><clipPath id="5"><path id="" clip-rule="evenodd" transform="matrix(1 0 0 1 0 0)" d="M0 0L595.5 0L595.5 0L595.5 842L595.5 842L0 842z" /></clipPath><clipPath id="6"><path id="" clip-rule="evenodd" transform="matrix(1 0 0 1 0 0)" d="M0 0L595.5 0L595.5 0L595.5 842L595.5 842L0 842z" /></clipPath><clipPath id="7"><path id="" clip-rule="evenodd" transform="matrix(1 0 0 1 0 0)" d="M49.55 662.95L376.45 662.95L376.45 662.95L376.45 789.5L376.45 789.5L49.55 789.5z" /></clipPath><clipPath id="8"><path id="" clip-rule="evenodd" transform="matrix(1 0 0 1 0 0)" d="M0 0L595.5 0L595.5 0L595.5 842L595.5 842L0 842z" /></clipPath><clipPath id="9"><path id="" clip-rule="evenodd" transform="matrix(1 0 0 1 0 0)" d="M43.55 41.04999L551.3 41.04999L551.3 41.04999L551.3 172.8L551.3 172.8L43.55 172.8z" /></clipPath><clipPath id="10"><path id="" clip-rule="evenodd" transform="matrix(1 0 0 1 0 0)" d="M0 0L595.5 0L595.5 0L595.5 842L595.5 842L0 842z" /></clipPath></defs><g transform="matrix(1.333333 0 0 1.333333 0 0)"><g clip-path="url(#1)"><g clip-path="url(#2)"><path id="1" transform="matrix(1 0 0 -1 0 842)" d="M0 842L595.32 842L595.32 842L595.32 -2.320007L595.32 -2.320007L0 -2.320007z" stroke="none" fill="#F0EFEF" fill-rule="evenodd" /><path id="2" transform="matrix(1 0 0 -1 0 842)" d="M129.5 201.175L361.95 201.175L361.95 200.425L129.5 200.425z" stroke="none" fill="#404040" fill-rule="nonzero" /><g transform="matrix(0.3610588 0 0 0.36 41.28 625.8)"><g transform="matrix(1 0 0 1 0 0)"><image x="0" y="0" xlink:href="img_35.png" width="340" height="77" /></g></g></g><g clip-path="url(#3)"><g clip-path="url(#4)"></g></g><g clip-path="url(#5)"><g transform="matrix(0.3602721 0 0 0.36 37.32 37.67999)"><g transform="matrix(1 0 0 1 0 0)"><image x="0" y="0" xlink:href="img_36.png" width="882" height="300" /></g></g></g><g clip-path="url(#6)"><g clip-path="url(#7)"><path id="75" transform="matrix(1 0 0 -1 0 842)" d="M117.95 119.15L344.5 119.15" stroke="#0000FF" stroke-width="0.48" fill="none" /><path id="119" transform="matrix(1 0 0 -1 0 842)" d="M108.7 73.40002L277.2 73.40002" stroke="#0000FF" stroke-width="0.48" fill="none" /></g></g><g clip-path="url(#8)"><g clip-path="url(#9)"></g></g><g clip-path="url(#10)"><g transform="matrix(0.3275138 0 0 0.3273913 49.44 184.8)"><g transform="matrix(1 0 0 1 0 0)"><image x="0" y="0" xlink:href="img_37.png" width="724" height="1288" /></g></g><g transform="matrix(0.7502325 0 0 0.7502325 323.04 184.8)"><g transform="matrix(1 0 0 1 0 0)"><image x="0" y="0" xlink:href="img_38.png" width="258" height="258" /></g></g></g></g></g></svg>